<svg xmlns="http://www.w3.org/2000/svg" viewBox="0 0 24 24" fill="#777777">
    <path d="M 8 5 C 6.346 5 5 6.346 5 8 C 5 9.654 6.346 11 8 11 C 9.654 11 11 9.654 11 8 C 11 6.346 9.654 5 8 5 z M 15.15625 5.4375 L 7.15625 17.4375 L 8.84375 18.5625 L 16.84375 6.5625 L 15.15625 5.4375 z M 8 7 C 8.551 7 9 7.449 9 8 C 9 8.551 8.551 9 8 9 C 7.449 9 7 8.551 7 8 C 7 7.449 7.449 7 8 7 z M 16 13 C 14.346 13 13 14.346 13 16 C 13 17.654 14.346 19 16 19 C 17.654 19 19 17.654 19 16 C 19 14.346 17.654 13 16 13 z M 16 15 C 16.551 15 17 15.449 17 16 C 17 16.551 16.551 17 16 17 C 15.449 17 15 16.551 15 16 C 15 15.449 15.449 15 16 15 z"/>
</svg>
